<mxfile host="app.diagrams.net" modified="2023-07-07T01:10:36.445Z" agent="Mozilla/5.0 (Windows NT 10.0; Win64; x64) AppleWebKit/537.36 (KHTML, like Gecko) Chrome/113.0.0.0 Safari/537.36" version="21.6.1" etag="y7DDEfareo7JHH3Xu8Uf" type="github">
  <diagram name="第 1 页" id="tYGTClYtR2YcC65yfUDY">
    <mxGraphModel>
      <root>
        <mxCell id="0" />
        <mxCell id="1" parent="0" />
      </root>
    </mxGraphModel>
  </diagram>
</mxfile>
